<?xml version="1.0" encoding="UTF-8"?>
<!DOCTYPE svg PUBLIC "-//W3C//DTD SVG 1.1//EN" "http://www.w3.org/Graphics/SVG/1.1/DTD/svg11.dtd">
<!-- Creator: CorelDRAW X8 -->
<svg xmlns="http://www.w3.org/2000/svg" xml:space="preserve" width="100%" height="100%" version="1.1" style="shape-rendering:geometricPrecision; text-rendering:geometricPrecision; image-rendering:optimizeQuality; fill-rule:evenodd; clip-rule:evenodd"
viewBox="0 0 2979 2979"
 xmlns:xlink="http://www.w3.org/1999/xlink">
 <defs>
  <style type="text/css">
   <![CDATA[
    .fil1 {fill:#F21818}
    .fil0 {fill:white}
   ]]>
  </style>
 </defs>
 <g id="Слой_x0020_1">
  <metadata id="CorelCorpID_0Corel-Layer"/>
  <rect class="fil0" width="2979" height="2979"/>
  <path class="fil1" d="M1085 1870c47,-48 119,-123 207,-207 -138,-141 -282,-320 -431,-546 -256,322 -144,181 -447,559l513 25c-764,37 -699,143 -366,-388 379,-606 268,-479 570,-69 87,119 181,223 275,312 1754,-1592 1600,1597 -93,128 -106,83 -189,154 -228,186zm355 -282c1520,1177 1355,-1189 0,0z"/>
 </g>
</svg>
