<?xml version="1.0" encoding="UTF-8"?>
<!DOCTYPE svg PUBLIC "-//W3C//DTD SVG 1.1//EN" "http://www.w3.org/Graphics/SVG/1.1/DTD/svg11.dtd">
<!-- Creator: CorelDRAW X8 -->
<svg xmlns="http://www.w3.org/2000/svg" xml:space="preserve" width="100%" height="100%" version="1.1" style="shape-rendering:geometricPrecision; text-rendering:geometricPrecision; image-rendering:optimizeQuality; fill-rule:evenodd; clip-rule:evenodd"
viewBox="0 0 2329 976"
 xmlns:xlink="http://www.w3.org/1999/xlink">
 <defs>
  <style type="text/css">
   <![CDATA[
    .fil0 {fill:#F21818}
    .fil1 {fill:#1A1A1A;fill-rule:nonzero}
   ]]>
  </style>
 </defs>
 <g id="Слой_x0020_1">
  <metadata id="CorelCorpID_0Corel-Layer"/>
  <path class="fil0" d="M396 448c21,-22 54,-56 95,-95 -64,-65 -130,-148 -199,-252 -118,149 -66,84 -205,258l236 11c-352,17 -322,66 -169,-178 175,-280 124,-221 263,-32 40,55 83,103 127,144 808,-734 737,735 -43,59 -49,38 -88,71 -105,85zm163 -130c701,543 625,-548 0,0z"/>
  <path class="fil1" d="M15 510l111 4c10,0 23,-1 36,-2 22,-1 39,-2 51,-2 12,0 18,3 18,10 0,6 -5,9 -14,10 -16,1 -29,7 -37,18 -8,11 -13,33 -16,67 -2,34 -3,71 -3,111 0,66 3,109 9,132 6,22 20,40 40,53 21,14 48,20 82,20 34,0 60,-7 77,-22 18,-14 30,-37 36,-68 7,-32 10,-90 10,-175 0,-50 -4,-84 -12,-103 -8,-20 -21,-30 -40,-32 -13,-1 -20,-5 -20,-12 0,-6 5,-10 17,-10 5,0 14,1 26,2 13,1 26,2 40,2 13,0 28,-1 43,-2 12,-1 21,-2 25,-2 12,0 18,4 18,10 0,5 -5,8 -13,9 -11,2 -22,7 -31,16 -9,10 -15,26 -18,48 -3,22 -4,78 -4,169 0,60 -6,103 -18,130 -12,27 -33,48 -63,63 -29,14 -66,22 -111,22 -34,0 -64,-3 -89,-9 -25,-7 -45,-16 -60,-28 -15,-13 -26,-28 -32,-44 -7,-17 -10,-41 -10,-73l1 -184c0,-26 -1,-47 -4,-64 -3,-16 -8,-27 -14,-33 -6,-5 -15,-8 -28,-10 -8,-1 -13,-2 -15,-3 -2,-2 -3,-4 -3,-8 0,-7 5,-10 15,-10z"/>
  <path id="1" class="fil1" d="M727 975c-8,0 -39,-1 -94,-2l-57 0 -33 0c-8,0 -13,-1 -15,-2 -2,-1 -3,-3 -3,-6 0,-5 4,-7 11,-7 15,0 25,-3 32,-8 6,-4 10,-13 12,-26 2,-13 3,-39 5,-78 1,-38 2,-74 2,-107 0,-45 -2,-73 -6,-84 -5,-10 -16,-16 -33,-17 -6,0 -10,-3 -10,-7 0,-5 3,-7 9,-7 3,0 14,1 33,3 21,2 36,2 44,2l98 -2c33,0 64,6 95,19 30,12 54,33 72,61 18,28 27,61 27,97 0,26 -5,51 -16,74 -10,23 -25,42 -45,58 -20,16 -40,26 -59,31 -20,5 -43,8 -69,8zm-18 -19c36,0 65,-13 86,-38 21,-26 32,-62 32,-109 0,-48 -11,-88 -34,-119 -23,-31 -55,-46 -97,-46 -14,0 -23,1 -26,2 -3,2 -5,4 -5,5 -1,2 -2,21 -3,58l-3 88c-1,22 -1,49 -1,81 0,24 1,41 3,50 2,9 7,16 14,21 7,5 18,7 34,7z"/>
  <path id="2" class="fil1" d="M1240 630c5,27 10,54 16,81 0,5 -3,7 -8,7 -2,0 -5,-2 -9,-7 -18,-26 -34,-43 -49,-51 -14,-8 -36,-13 -63,-13 -16,0 -31,2 -45,4 -3,31 -5,64 -5,101 0,6 0,16 0,31l20 0c12,0 23,-1 32,-5 9,-3 16,-10 23,-21 6,-11 9,-18 10,-21 2,-6 4,-9 8,-9 5,0 7,2 7,7 0,1 0,2 0,4 -2,10 -3,42 -3,96 0,7 0,14 2,20 0,2 0,3 0,4 0,5 -2,8 -8,8 -4,0 -6,-5 -8,-14 -4,-16 -12,-29 -24,-37 -12,-8 -32,-13 -58,-13 -1,29 -2,48 -2,57 0,39 1,63 2,70 1,8 6,14 13,18 8,5 21,7 39,7 66,0 109,-21 130,-63 3,-6 6,-9 9,-9 5,0 7,2 7,7 0,2 0,6 -1,10l-17 74 -93 0c-27,0 -51,-1 -74,-2 -23,-1 -41,-1 -54,-1 -14,0 -36,0 -65,2 -4,0 -7,0 -8,0 -8,0 -12,-2 -12,-8 0,-4 3,-7 9,-7 17,0 28,-4 34,-14 6,-8 9,-27 9,-55l2 -133c0,-45 -1,-73 -2,-83 -1,-11 -4,-18 -9,-21 -5,-4 -14,-7 -27,-9 -6,-1 -9,-3 -9,-7 0,-5 4,-8 10,-8l62 2 209 1z"/>
  <path id="3" class="fil1" d="M1595 972c-43,-2 -110,-3 -201,-3 -31,0 -57,1 -77,2 -5,1 -8,1 -10,1 -7,0 -10,-3 -10,-8 0,-2 1,-4 2,-5 2,-1 6,-2 13,-3 11,-1 19,-5 24,-9 6,-5 10,-12 12,-22 3,-9 4,-33 4,-72 1,-38 1,-84 1,-137 0,-21 -2,-37 -5,-46 -3,-10 -7,-17 -13,-21 -6,-5 -14,-7 -24,-8 -8,0 -12,-3 -12,-8 0,-5 5,-8 13,-8l86 3c13,0 31,-1 55,-2 9,-1 15,-1 18,-1 7,0 10,3 10,8 0,2 -1,4 -3,5 -2,2 -8,3 -17,4 -12,2 -20,5 -25,9 -4,4 -8,12 -9,23 -2,10 -3,34 -3,72l0 157c0,24 3,38 7,43 4,5 12,7 23,7 29,0 50,-2 64,-7 13,-4 27,-12 39,-24 13,-11 26,-31 41,-58 2,-5 5,-8 8,-8 5,0 7,2 7,7 0,12 -6,48 -18,109z"/>
  <path id="4" class="fil1" d="M1616 625c90,2 156,3 199,3 33,0 68,0 107,-2 14,-1 26,-1 35,-1 3,0 9,0 17,0 1,7 3,22 5,44l4 40c0,7 -3,10 -9,10 -4,0 -8,-4 -12,-12 -6,-14 -15,-26 -25,-36 -10,-10 -22,-16 -36,-20 -13,-3 -36,-5 -67,-5 -3,27 -4,60 -4,100 0,40 1,79 2,117 2,38 3,61 6,68 2,8 6,14 11,18 5,3 18,6 38,7 7,1 10,3 10,7 0,5 -3,7 -9,7l-7 0 -54 -1c-41,0 -67,0 -76,0l-32 1c-3,0 -8,0 -16,0 -4,-1 -6,-3 -6,-7 0,-5 3,-7 10,-7 15,0 27,-3 34,-10 8,-6 13,-16 15,-30 1,-14 2,-44 2,-90 0,-74 -2,-134 -6,-180 -29,0 -49,2 -62,4 -13,2 -25,9 -36,19 -12,10 -22,24 -29,40 -3,7 -6,10 -10,10 -6,0 -9,-3 -9,-8 0,-1 1,-13 3,-34 2,-21 5,-38 7,-52z"/>
  <path id="5" class="fil1" d="M2133 618l19 0c22,50 54,127 96,233 19,48 32,78 39,88 7,11 19,17 34,19 6,1 8,3 8,7 0,5 -3,8 -10,8 -3,0 -13,-1 -28,-2 -18,-1 -33,-2 -45,-2 -12,0 -28,0 -47,2 -14,1 -23,1 -28,1 -8,0 -12,-2 -12,-7 0,-4 3,-6 9,-6 21,-2 31,-11 31,-26 0,-7 -3,-19 -9,-38 -6,-18 -13,-35 -20,-50 -11,0 -20,0 -26,0 -35,0 -62,0 -81,0 -15,41 -22,67 -22,81 0,9 3,16 11,21 7,6 15,9 24,10 7,0 10,3 10,7 0,5 -4,7 -11,7 -3,0 -10,0 -22,-1 -15,-1 -26,-1 -33,-1 -13,0 -26,1 -39,2 -3,1 -5,1 -7,1 -7,0 -10,-3 -10,-8 0,-4 2,-6 6,-7 11,-3 19,-7 25,-11 6,-4 12,-13 19,-25 7,-12 15,-31 24,-58 21,-61 53,-142 95,-245zm-18 90l-44 116 91 -2c-5,-13 -13,-31 -23,-55 -10,-25 -18,-45 -24,-59z"/>
 </g>
</svg>
